<svg width="30" height="30" viewBox="0 0 30 30" fill="none" xmlns="http://www.w3.org/2000/svg">
  <mask id="mask0_1_3" style="mask-type: alpha" maskUnits="userSpaceOnUse" x="0" y="0" width="30" height="30">
    <path d="M23.9398 29.5703L0.196999 24.1023L5.66498 0.359504L29.4078 5.82749L23.9398 29.5703Z" fill="white" />
  </mask>
  <g mask="url(#mask0_1_3)">
    <path
      d="M16.513 3.5182L14.186 7.2863C12.901 9.3674 10.696 10.7969 8.168 11.0517L3.761 11.4959C2.858 11.587 2.585 12.7761 3.357 13.2529L7.125 15.5797C9.206 16.8647 10.635 19.0697 10.89 21.5984L11.334 26.0046C11.425 26.9076 12.615 27.1813 13.091 26.4093L15.418 22.6412C16.703 20.5601 18.908 19.1307 21.437 18.8758L25.843 18.4315C26.746 18.3405 27.02 17.1513 26.248 16.6746L22.48 14.3478C20.399 13.0628 18.969 10.8578 18.714 8.3292L18.27 3.9228C18.179 3.0198 16.99 2.7462 16.513 3.5182ZM6.746 13.1084L8.358 12.9459C11.37 12.6424 14.154 10.9625 15.806 8.2866L16.657 6.9076L16.82 8.5201C17.124 11.5314 18.803 14.3153 21.479 15.9677L22.858 16.8191L21.246 16.9817C18.235 17.2852 15.451 18.9651 13.798 21.641L12.947 23.02L12.784 21.4075C12.481 18.3962 10.801 15.6123 8.125 13.9599L6.746 13.1084Z"
      fill="white" />
  </g>
</svg>