<svg width="35" height="35" viewBox="0 0 41 41" fill="none" xmlns="http://www.w3.org/2000/svg">
  <mask id="mask0_2_7" style="mask-type: alpha" maskUnits="userSpaceOnUse" x="0" y="0" width="41" height="41">
    <path d="M32.6903 40.9016L0.0440063 33.3831L7.56251 0.736792L40.2088 8.25523L32.6903 40.9016Z" fill="white" />
  </mask>
  <g mask="url(#mask0_2_7)">
    <path
      d="M22.479 5.08011L19.28 10.2613C17.513 13.1228 14.481 15.0883 11.004 15.4388L4.94501 16.0495C3.70401 16.1747 3.32701 17.8098 4.38901 18.4653L9.57001 21.6647C12.432 23.4316 14.397 26.4634 14.748 29.9403L15.358 35.999C15.484 37.2406 17.119 37.6169 17.774 36.5553L20.974 31.3742C22.74 28.5127 25.772 26.5473 29.249 26.1968L35.308 25.586C36.549 25.4608 36.926 23.8257 35.864 23.1701L30.683 19.9708C27.822 18.204 25.856 15.1721 25.506 11.6952L24.895 5.63651C24.77 4.39481 23.134 4.01871 22.479 5.08011ZM9.049 18.2667L11.267 18.0432C15.407 17.6259 19.235 15.316 21.507 11.6367L22.678 9.74061L22.901 11.9578C23.319 16.0983 25.628 19.9262 29.308 22.1981L31.204 23.3689L28.987 23.5924C24.846 24.0098 21.018 26.3197 18.746 29.999L17.575 31.8951L17.352 29.6779C16.935 25.5374 14.625 21.7095 10.945 19.4375L9.049 18.2667Z"
      fill="#505050" />
  </g>
</svg>