<svg width="445" height="446" viewBox="0 0 445 446" fill="none" xmlns="http://www.w3.org/2000/svg">
    <path
        d="M444.879 210.442C444.77 207.321 444.71 204.2 444.396 201.103L444.021 196.445L443.828 194.11C443.767 193.336 443.646 192.562 443.55 191.787C443.151 188.702 442.788 185.605 442.353 182.52C441.821 179.46 441.29 176.387 440.758 173.326C437.072 158.554 431.621 144.69 424.707 132.181C423.438 129.955 421.976 127.257 420.429 124.233C419.68 122.708 418.797 121.16 417.903 119.551C417.021 117.942 416.102 116.272 415.171 114.579C414.277 112.861 413.201 111.203 412.198 109.498C411.183 107.804 410.156 106.086 409.128 104.38C406.977 101.041 404.777 97.7868 402.711 94.7019C396.124 85.4712 388.824 76.5551 381.028 68.5947C379.783 67.3849 378.55 66.1993 377.305 65.0137L376.725 64.3967L374.501 62.0134C374.127 61.6142 373.764 61.215 373.377 60.8278L372.217 59.6906L367.552 55.1539L366.38 54.0168C365.993 53.6417 365.57 53.2909 365.171 52.9279L362.73 50.7745C356.3 44.9433 349.314 39.7776 342.231 34.8053L336.781 31.2849L334.049 29.5307L331.245 27.9095L325.625 24.6673L319.872 21.6912L316.996 20.2153C316.029 19.7314 315.038 19.308 314.059 18.8603L308.161 16.1867C306.178 15.3399 304.16 14.5777 302.166 13.7792C300.16 12.9929 298.165 12.1702 296.111 11.5169L289.995 9.4361C288.98 9.07317 287.94 8.80702 286.913 8.49247L283.783 7.62142C279.674 6.35115 275.456 5.468 271.286 4.47598C270.766 4.355 270.246 4.22192 269.715 4.12514L268.131 3.83479L264.965 3.25409L261.798 2.6734L260.215 2.38305L258.619 2.16529L252.238 1.31843L250.643 1.11277C250.111 1.04018 249.579 1.01599 249.047 0.967597L245.844 0.701444C237.312 -0.121211 228.718 -0.109113 220.173 0.15704L213.768 0.592563C212.704 0.66515 211.641 0.725639 210.577 0.822422L207.398 1.19746L201.041 1.95962C198.938 2.29836 196.835 2.6613 194.72 3.02423C177.679 5.93982 161.072 11.3113 145.324 18.5216C144.333 18.9692 143.342 19.4047 142.363 19.8645L139.462 21.3404L133.673 24.3044C131.763 25.3448 129.914 26.4578 128.029 27.5224L125.213 29.1556C124.741 29.4339 124.27 29.6879 123.811 29.9783L122.445 30.8614C118.807 33.2326 115.109 35.4949 111.628 38.1201C109.863 39.4025 108.099 40.6486 106.346 41.9552L101.246 46.0322C97.3298 49.1776 93.5589 52.5045 89.8968 55.9645C89.8847 55.9645 89.8605 55.9645 89.8484 55.9645C89.3529 55.9161 88.8574 55.8798 88.3256 55.8314C78.56 64.6508 68.1538 75.9865 58.9804 88.786C57.9773 89.8264 56.962 90.8789 55.8743 91.992C55.3304 92.5485 54.7744 93.1292 54.1943 93.734C53.9042 94.0365 53.6142 94.3389 53.312 94.6535C53.0219 94.9801 52.7319 95.3068 52.4418 95.6576C51.2453 97.0247 49.9521 98.5127 48.4896 100.182C47.7645 101.017 46.991 101.912 46.1691 102.844C45.4077 103.824 44.5979 104.852 43.7398 105.941C44.332 104.949 44.9121 103.993 45.4923 103.037C46.0603 102.094 46.7009 101.211 47.281 100.327C48.4655 98.5611 49.6016 96.8674 50.7014 95.2342C51.765 93.5768 52.9373 92.0887 54.0372 90.6128C55.137 89.1369 56.2006 87.7214 57.24 86.3301C58.2553 84.9268 59.343 83.6444 60.3945 82.3741C61.446 81.1039 62.4733 79.8699 63.4886 78.648C65.4707 76.1558 67.622 73.9661 69.6888 71.6796C68.6252 72.7563 67.6099 73.7726 66.643 74.7283C66.1596 75.2001 65.6761 75.6719 65.2169 76.1196C64.7697 76.5914 64.3346 77.0511 63.9116 77.4866C62.2195 79.265 60.6604 80.8377 59.2101 82.2411C58.497 82.9427 57.7718 83.596 57.1312 84.2493C56.4907 84.9026 55.8743 85.5196 55.27 86.1124C54.0614 87.298 52.9253 88.3626 51.8254 89.3546C51.2695 89.8506 50.7256 90.3345 50.2059 90.8064C49.6741 91.2782 49.1302 91.7379 48.6468 92.2218C47.6436 93.1775 46.6525 94.1212 45.6252 95.1011C44.61 96.081 43.5706 97.0973 42.4707 98.2103C41.3467 99.2991 40.2831 100.557 39.135 101.948C39.6063 101.029 40.0777 100.11 40.549 99.1902C41.0567 98.2949 41.5764 97.3876 42.0961 96.4803C43.1355 94.6656 44.187 92.8388 45.2385 91.012C46.2537 89.149 47.4744 87.4069 48.6105 85.5922C49.7708 83.7896 50.931 81.987 52.1034 80.1723C53.3241 78.3939 54.6052 76.6519 55.8622 74.8856L57.7597 72.2361C58.4003 71.353 59.0167 70.4577 59.7177 69.623L63.7907 64.5056L65.8333 61.9409C66.5343 61.1061 67.2715 60.2955 67.9846 59.4729C67.2353 60.0415 66.4617 60.6222 65.6761 61.215C64.9147 61.8441 64.1412 62.4853 63.3314 63.1506C61.724 64.4935 60.0198 65.909 58.1827 67.4454C57.7235 67.8325 57.2521 68.2196 56.7807 68.6189C56.3215 69.0423 55.8622 69.4657 55.3908 69.9012C54.4481 70.7723 53.4571 71.6917 52.4297 72.6354C50.3872 74.5468 48.115 76.5551 45.8669 78.9505C46.3383 78.3093 46.7855 77.6802 47.2206 77.0874C47.4381 76.7849 47.6557 76.4946 47.8612 76.2042C48.0787 75.926 48.2963 75.6477 48.5138 75.3816C49.3719 74.3049 50.1696 73.3129 50.9069 72.3813C52.4056 70.5182 53.6867 68.9213 54.859 67.4575C57.3125 64.6266 59.3551 62.3764 61.6756 59.7511C61.6152 59.7269 61.5427 59.7027 61.4823 59.6906C58.2794 63.3321 54.9678 66.8768 52.0188 70.7118C50.508 72.5991 48.9852 74.4742 47.4986 76.3857L43.2443 82.2653L41.1171 85.205C40.4282 86.1971 39.7876 87.2254 39.1108 88.2295L35.1465 94.3147C34.4697 95.3189 33.8896 96.3835 33.2732 97.4239L31.4482 100.557L29.6232 103.691C29.321 104.211 29.0068 104.731 28.7167 105.263L27.8828 106.872L24.5349 113.308L23.7251 114.93C23.4471 115.474 23.2175 116.03 22.9516 116.575L21.4287 119.878L19.918 123.18C19.4224 124.281 18.8907 125.37 18.4556 126.495L15.7483 133.234L15.0714 134.915L14.733 135.762L14.4309 136.621L13.2343 140.045C12.4487 142.331 11.6269 144.606 10.8896 146.904L8.83498 153.86C8.50865 155.022 8.13398 156.171 7.83183 157.345L6.97371 160.865C6.40566 163.212 5.81344 165.559 5.28165 167.906L3.90383 175.02L3.227 178.576L2.7073 182.157L1.66789 189.319L0.954806 196.518L0.604308 200.111L0.410929 203.716L0.0483446 210.938L0.0120862 218.161L0 221.754L0.145034 225.359L0.447188 232.569L1.06358 239.755L1.37782 243.348C1.52286 244.546 1.69206 245.732 1.84918 246.917L2.81607 254.055C3.21492 256.426 3.6621 258.785 4.09721 261.144L4.74986 264.689C4.99158 265.863 5.28165 267.024 5.53546 268.197L7.155 275.202C7.75931 277.525 8.43613 279.823 9.0767 282.134L10.0557 285.594C10.3941 286.743 10.7929 287.869 11.1676 289.018L13.4277 295.841C14.2375 298.091 15.1319 300.317 15.9779 302.555L17.2711 305.906C17.6941 307.032 18.2138 308.108 18.6852 309.209L21.5738 315.766C22.0331 316.867 22.6132 317.92 23.1329 318.996L24.7283 322.202C25.8039 324.331 26.8192 326.497 28.0278 328.554C37.1891 345.285 48.26 360.988 61.2647 374.804L66.1475 379.97C67.8275 381.639 69.5558 383.26 71.2599 384.893C74.6199 388.245 78.2699 391.245 81.8353 394.354L83.1769 395.515C83.6241 395.902 84.1075 396.253 84.5668 396.616L87.3587 398.794C89.2321 400.234 91.0692 401.722 92.9546 403.125L98.7439 407.19L101.645 409.222C102.636 409.863 103.639 410.48 104.63 411.122C120.511 421.284 137.589 429.595 155.5 435.329C157.712 436.031 159.924 436.757 162.136 437.434L168.868 439.225L172.24 440.108C173.376 440.374 174.512 440.604 175.648 440.846L182.477 442.286C191.626 443.883 200.86 445.201 210.166 445.613L213.647 445.818C214.227 445.842 214.807 445.891 215.387 445.903L217.128 445.927L224.114 445.988L225.866 446L227.606 445.927L231.099 445.794L234.592 445.649L236.345 445.576C236.925 445.54 237.505 445.48 238.085 445.431C242.726 445.008 247.391 444.681 251.996 443.955L255.465 443.471C256.625 443.302 257.786 443.169 258.922 442.939L265.811 441.632C268.119 441.233 270.379 440.665 272.651 440.12C274.924 439.564 277.208 439.056 279.456 438.439L286.188 436.467C287.312 436.128 288.436 435.825 289.548 435.45L292.872 434.301L299.507 431.978L306.021 429.353L309.285 428.034L312.475 426.558L318.857 423.595C327.22 419.324 335.487 414.836 343.259 409.537L346.208 407.589C346.691 407.262 347.199 406.948 347.67 406.609L349.096 405.569L354.789 401.395L356.215 400.354C356.687 400.004 357.134 399.617 357.593 399.254L360.337 397.028L363.08 394.802C363.987 394.051 364.929 393.338 365.787 392.539C365.086 392.951 364.494 393.18 364.071 393.229C363.66 393.277 363.431 393.144 363.431 392.757C364.047 392.273 364.603 391.777 365.159 391.281C365.703 390.797 366.235 390.325 366.754 389.866C367.794 388.97 368.761 388.124 369.667 387.337C370.586 386.563 371.444 385.849 372.241 385.172C373.039 384.506 373.74 383.841 374.417 383.272C377.1 380.937 379.034 379.486 380.484 378.627C381.282 377.852 382.031 377.03 382.768 376.207L385.004 373.739C386.491 372.094 388.002 370.461 389.464 368.791L393.694 363.65C395.096 361.932 396.535 360.238 397.828 358.435L401.792 353.076C402.445 352.181 403.134 351.31 403.738 350.378L405.587 347.608L409.273 342.055C410.482 340.192 411.57 338.244 412.718 336.345C411.872 337.349 411.026 338.341 410.131 339.405C412.138 336.066 413.89 333.236 415.292 330.816C416.646 328.348 417.746 326.34 418.628 324.743C419.522 323.146 420.236 321.972 420.719 321.138C421.202 320.303 421.517 319.843 421.722 319.722C427.306 308.459 431.766 296.664 435.355 284.638C438.933 272.601 441.543 260.297 443.175 247.885C444.71 235.448 445.278 222.927 444.879 210.442ZM359.793 337.615C359.793 337.603 359.817 337.591 359.817 337.579C359.817 337.591 359.805 337.603 359.793 337.615ZM144.067 385.898C142.846 384.93 141.638 383.962 140.429 383.006C141.36 383.538 142.302 384.059 143.221 384.579L144.067 385.898ZM180.845 40.2736L181.812 40.2131C181.619 40.2494 181.437 40.2857 181.244 40.322L180.845 40.2736ZM210.239 35.8578C211.483 36.0151 212.728 36.1361 213.961 36.3176L215.399 36.5595C214.3 36.5837 213.2 36.6442 212.088 36.6805C211.471 36.4022 210.855 36.1361 210.239 35.8578ZM250.087 36.6684L250.896 36.8741L251.694 37.116L253.289 37.612L256.48 38.6041L259.647 39.5961L260.759 40.0074C258.027 39.4509 255.296 38.9065 252.54 38.5436C252.419 38.5194 252.286 38.5073 252.165 38.4831C251.489 37.8661 250.788 37.237 250.087 36.6684ZM166.813 88.1811C167.514 87.8061 168.251 87.4915 169.001 87.1649C169.75 86.8383 170.499 86.5116 171.249 86.185C171.998 85.8583 172.747 85.5317 173.473 85.2171C174.222 84.9389 174.947 84.6606 175.648 84.4066C177.086 83.8743 178.525 83.3299 179.999 82.846C181.486 82.4104 182.972 81.9749 184.459 81.5273L185.571 81.2007C185.945 81.0918 186.32 81.0192 186.695 80.9224C187.444 80.7409 188.193 80.5595 188.943 80.378C190.429 80.0151 191.904 79.5916 193.378 79.3134C201.428 77.4624 209.634 76.422 217.865 76.1558C219.521 76.2163 221.165 76.2768 222.844 76.3494C225.491 76.5067 228.682 76.7002 230.833 76.8333C236.792 76.9422 242.895 77.7044 248.951 79.0109C249.519 79.144 250.087 79.265 250.655 79.3981C250.957 79.4707 251.271 79.5311 251.573 79.6158C254.45 80.3296 257.302 81.1281 260.13 82.0233C260.287 82.0717 260.457 82.1201 260.614 82.1685C261.351 82.3983 262.076 82.6524 262.801 82.9064C264.082 83.342 265.351 83.7896 266.621 84.2493C273.026 86.7052 278.247 89.5966 281.269 92.2823C281.607 92.5605 283.046 93.4558 283.988 94.0607C284.919 94.3752 285.862 94.6898 286.841 95.0285C287.82 95.3673 288.823 95.8028 289.935 96.2262C290.744 96.8311 291.554 97.4239 292.34 98.0046C293.125 98.5974 293.851 99.2386 294.6 99.8435C294.805 100.013 294.999 100.17 295.192 100.339C292.666 99.7951 288.895 98.2224 280.411 94.218C284.895 95.4277 287.276 96.0084 280.399 91.9678C279.77 91.5685 279.045 91.1935 278.078 90.7459C277.595 90.5281 277.039 90.2861 276.422 89.9958C275.782 89.7296 275.057 89.4756 274.223 89.161C270.21 88.1085 269.195 88.2658 269.594 88.7376C270.005 89.1852 271.769 90.1773 273.292 91.0483C274.053 91.4838 274.754 91.8831 275.202 92.1855C275.637 92.5122 275.83 92.7299 275.576 92.7662C275.468 92.7783 275.262 92.742 274.972 92.6936C274.851 92.6331 274.73 92.5605 274.609 92.5001C272.083 91.2782 268.917 89.7176 266.04 88.6045L263.998 89.2215L267.781 90.6007C268.083 90.7096 268.385 90.8427 268.687 90.9636C268.168 90.8185 267.648 90.6733 267.056 90.5281C265.581 89.9353 264.107 89.3304 262.596 88.8344C261.085 88.3384 259.586 87.7335 258.039 87.3222C257 87.298 256.251 87.3827 255.634 87.5157C255.078 87.3464 254.51 87.1649 253.966 87.0197C250.703 86.2334 247.911 85.7374 245.82 86.0035C244.612 85.5196 246.28 85.7736 245.071 85.2897C242.992 84.8663 240.913 84.455 238.822 84.1767C236.731 83.8743 234.653 83.5113 232.562 83.342C231.667 83.8985 229.153 84.3582 231.123 85.3623C231.111 85.3623 231.087 85.3623 231.075 85.3623C228.235 84.8784 225.733 85.4954 221.696 84.8905C211.435 84.4187 220.439 83.4267 216.717 82.6766C210.19 82.7008 203.446 82.9911 196.726 83.9348C190.006 84.8421 183.286 86.1729 176.736 87.9513C171.974 89.282 167.309 90.8427 162.788 92.5606C162.631 92.6089 162.474 92.6694 162.329 92.7178C161.205 93.1533 160.214 93.5042 159.501 93.6857C158.087 94.0607 157.821 93.7703 160.129 92.0403C161.471 90.9152 164.009 89.6329 166.813 88.1811ZM374.816 249.579L375.807 245.441C376.085 244.05 376.327 242.647 376.592 241.255C376.846 239.852 377.136 238.461 377.366 237.045L377.946 232.799L378.417 235.775L378.659 237.275C378.744 237.771 378.768 238.267 378.828 238.775C378.877 239.199 378.998 239.501 379.167 239.695C379.106 239.792 379.058 239.888 379.01 240.009L377.028 244.849C376.472 246.143 375.843 247.425 375.239 248.696L375.432 247.825C375.372 248.139 375.275 248.454 375.203 248.768C375.07 249.046 374.937 249.313 374.816 249.579ZM387.289 225.456C387.204 225.153 387.132 224.839 387.047 224.536C386.721 223.302 385.814 222.806 385.403 224.318C385.113 225.359 384.835 226.399 384.545 227.44C383.929 227.694 383.433 228.008 383.071 228.383L382.865 226.448C382.672 224.609 381.342 224.076 381.028 226.169L380.557 229.242C380.375 230.258 380.146 231.275 379.94 232.291C379.844 231.686 379.626 230.863 379.348 229.992C379.082 229.121 378.659 228.214 378.297 227.44C377.547 225.903 376.846 224.911 376.762 225.843C376.544 228.274 376.266 230.682 375.94 233.089C376.762 226.012 377.124 218.887 377.064 211.773C377.197 214.229 377.306 216.673 377.33 219.128C377.366 220.798 378.369 221.947 378.961 220.701C379.481 219.637 379.964 218.499 380.424 217.314C380.484 219.08 381.644 220.447 382.128 218.741C383.494 218.112 386.249 217.604 389.029 216.709C388.57 219.77 387.965 222.734 387.289 225.456ZM380.956 207.2C380.726 208.446 380.472 209.656 380.182 210.829C379.892 212.003 379.59 213.128 379.155 214.217C378.744 204.551 377.499 194.945 375.408 185.521C375.771 185.678 376.036 185.412 376.266 185C376.314 186.694 378.901 188.303 379.106 186.73C379.131 186.791 379.324 187.65 379.493 189.017C379.65 190.384 379.868 192.259 380.109 194.328C380.4 196.384 380.496 198.671 380.641 200.836C380.714 201.913 380.786 202.978 380.859 203.97C380.871 204.212 380.895 204.466 380.907 204.696C380.907 204.938 380.919 205.168 380.919 205.397C380.931 205.857 380.943 206.305 380.943 206.716L380.956 207.2ZM217.502 377.139C216.197 377.102 214.88 377.09 213.586 376.981L213.502 376.921L216.753 376.945L217.502 377.139ZM197.391 375.796C195.663 375.59 193.91 375.336 192.17 375.046C192.073 374.985 191.989 374.913 191.904 374.852C193.56 375.118 195.216 375.36 196.883 375.59L197.391 375.796ZM113.344 288.957C113.247 288.812 113.138 288.679 113.042 288.534C112.365 287.506 111.712 286.501 111.072 285.509C110.757 285.013 110.443 284.517 110.141 284.034C109.839 283.55 109.525 283.066 109.271 282.57C108.195 280.586 107.216 278.662 106.37 276.775C106.975 277.61 107.591 278.456 108.207 279.315C109.791 282.606 111.507 285.824 113.344 288.957ZM91.7943 229.242C92.1811 228.48 92.592 229.23 93.0392 230.912C93.148 231.335 93.2809 231.807 93.438 232.339C93.5831 232.872 93.7402 233.44 93.8973 234.057C94.2236 235.291 94.5258 236.695 94.9367 238.183C95.6498 240.53 96.2904 242.901 97.0639 245.224C98.7197 254.152 101.246 262.778 104.545 270.992C104.521 270.944 104.497 270.895 104.461 270.847C104.074 270.194 103.723 269.516 103.373 268.839C103.155 268.415 102.926 267.98 102.708 267.544C100.653 262.657 99.5415 258.676 98.345 254.708C97.1001 249.821 95.6982 244.897 94.0423 237.674L93.7644 238.146C93.4501 236.949 93.1721 235.715 92.87 234.469C92.6645 233.61 92.4711 232.751 92.2657 231.88C92.0965 231.033 91.9635 230.138 91.7943 229.242ZM232.489 377.344C232.03 377.381 231.595 377.441 231.136 377.453C231.027 377.417 230.918 377.381 230.821 377.356C231.365 377.356 231.921 377.344 232.489 377.344ZM208.341 376.679L208.837 376.703C208.256 376.679 207.676 376.667 207.108 376.618L205.537 376.473C206.468 376.558 207.41 376.643 208.341 376.679ZM227.171 354.842C229.129 354.842 231.063 354.782 233.009 354.697C231.474 354.879 229.939 355.036 228.404 355.169C208.945 356.016 189.45 353.451 171.116 347.571C170.052 347.196 169.001 346.809 167.949 346.41C166.402 345.878 164.879 345.2 163.332 344.595C162.559 344.281 161.773 343.978 161 343.664C160.613 343.507 160.214 343.361 159.827 343.192L158.679 342.672C157.144 341.97 155.609 341.268 154.074 340.579C152.563 339.841 151.089 339.018 149.627 338.232C148.913 337.845 148.176 337.433 147.415 337.022C146.678 336.575 145.916 336.115 145.167 335.643C144.405 335.183 143.644 334.711 142.882 334.24C142.121 333.768 141.372 333.32 140.671 332.812C137.867 330.828 135.329 329.062 134.035 327.683C131.812 325.481 132.126 325.203 133.6 325.82C134.338 326.134 135.365 326.666 136.501 327.295C137.661 327.888 138.967 328.566 140.224 329.207C141.009 329.618 141.19 329.461 141.65 329.57C137.178 326.267 135.111 324.392 131.739 321.851C130.929 321.174 130.035 320.448 129.02 319.638C128.512 319.226 127.968 318.803 127.388 318.343C127.098 318.113 126.796 317.871 126.494 317.629C126.192 317.375 125.889 317.097 125.575 316.819C124.306 315.706 122.868 314.46 121.212 313.008C120.414 312.246 119.568 311.435 118.674 310.564C118.601 310.504 118.529 310.431 118.468 310.358C118.493 310.346 118.517 310.334 118.541 310.31C118.928 309.996 118.698 309.33 117.199 307.322C116.462 306.306 115.374 304.975 113.852 303.221C112.341 301.442 110.54 299.12 108.171 296.24C106.141 293.591 104.231 291.135 102.418 288.776C98.6472 282.291 95.3839 275.529 92.6766 268.548C92.7854 268.706 92.8942 268.863 93.0029 269.008C93.6193 269.831 94.2116 270.605 94.7917 271.331C95.3718 272.057 95.9399 272.77 96.5079 273.496C96.7859 273.859 97.1001 274.21 97.4023 274.573C97.7044 274.936 98.0187 275.299 98.3329 275.674C98.9614 276.424 99.6141 277.234 100.303 278.118C100.641 278.565 100.992 279.025 101.354 279.509C101.717 279.993 102.128 280.489 102.539 281.009C103.361 282.062 104.243 283.235 105.198 284.554C105.44 284.88 105.681 285.219 105.923 285.57C106.189 285.909 106.455 286.26 106.733 286.61C107.289 287.324 107.857 288.086 108.461 288.897C107.313 287.203 106.092 285.57 105.017 283.755C104.461 282.86 103.893 281.953 103.325 281.021C102.744 280.09 102.152 279.158 101.608 278.142C101.052 277.138 100.484 276.109 99.892 275.045C99.3119 273.98 98.6713 272.891 98.1275 271.706C97.5594 270.532 96.9551 269.323 96.3387 268.052C96.0366 267.411 95.6982 266.782 95.4081 266.104C95.118 265.427 94.8279 264.737 94.5258 264.036C94.9851 264.834 95.4323 265.584 95.8432 266.286C96.2904 266.976 96.7134 267.629 97.1243 268.246C97.9341 269.48 98.6472 270.569 99.3119 271.585C99.4811 271.839 99.6382 272.081 99.7954 272.323C99.9646 272.553 100.134 272.783 100.291 273.012C100.617 273.46 100.931 273.883 101.234 274.307C101.765 275.033 102.273 275.722 102.769 276.412C104.388 279.775 106.225 283.138 108.328 286.477C108.655 286.804 108.932 287.058 109.186 287.288C112.45 292.357 115.894 297.002 119.266 301.031C119.617 301.055 119.955 301.067 120.269 301.092C120.596 301.104 120.922 301.104 121.236 301.116C121.285 301.116 121.333 301.116 121.393 301.116C145.529 333.744 183.927 354.842 227.171 354.842ZM259.55 400.1C258.414 400.161 257.254 400.161 256.118 400.185C258.873 399.617 261.653 398.866 264.36 398.116C265.436 398.37 266.512 398.612 267.599 398.854C265.883 399.229 264.046 399.604 262.161 399.931L259.55 400.1ZM261.871 40.5397C261.907 40.5034 261.907 40.4671 261.834 40.3945L262.777 40.7333C262.475 40.6607 262.173 40.6123 261.871 40.5397ZM233.674 37.5515L232.38 37.0555C231.945 36.8983 231.51 36.7652 231.087 36.62C232.247 36.7531 233.396 36.995 234.544 37.2128L237.988 37.8661C236.574 37.8056 235.136 37.7088 233.674 37.5515ZM171.66 395.781C172.663 395.14 174.645 395.673 176.845 396.483C177.401 397.378 177.969 398.322 178.549 399.181C176.204 398.104 173.896 396.931 171.587 395.818C171.611 395.794 171.635 395.794 171.66 395.781ZM229.746 402.677C230.181 402.605 230.604 402.544 231.027 402.496C231.607 402.75 232.187 403.004 232.779 403.21C231.704 403.089 230.616 402.871 229.54 402.701C229.613 402.701 229.685 402.689 229.746 402.677ZM273.207 397.185L271.262 396.834C272.434 396.713 273.606 396.568 274.791 396.423C274.356 396.677 273.824 396.931 273.207 397.185ZM354.487 343.567L354.801 343.289C354.982 343.192 355.139 343.095 355.309 342.998L355.659 343.023C354.898 343.978 354.136 344.922 353.339 345.866C353.617 345.007 353.496 344.414 354.487 343.567ZM395.096 260.612C394.685 259.693 393.96 259.197 393.453 260.031C393.453 259.983 393.573 259.523 393.779 258.773C393.912 258.277 394.093 257.648 394.274 256.934C394.589 256.1 394.903 255.277 395.205 254.466C395.338 254.164 395.459 253.861 395.592 253.571C395.471 255.737 395.338 257.781 395.229 259.705C395.181 260.007 395.133 260.31 395.096 260.612ZM143.052 49.5042C144.937 47.992 148.454 46.2015 152.37 44.1933C153.337 43.6731 154.376 43.2375 155.416 42.7778C156.455 42.3302 157.507 41.8705 158.546 41.4108C159.586 40.9632 160.625 40.5034 161.64 40.0679C162.68 39.6808 163.683 39.3057 164.662 38.9307C166.656 38.1927 168.674 37.4185 170.717 36.7531C172.784 36.1482 174.85 35.5312 176.929 34.9263L178.476 34.4666C178.996 34.3093 179.516 34.2125 180.047 34.0795C181.087 33.8254 182.138 33.5714 183.166 33.3173C185.244 32.8213 187.275 32.2285 189.342 31.8414C200.546 29.2766 211.967 27.8128 223.413 27.4377C225.709 27.5224 228.005 27.6071 230.35 27.7039C234.036 27.9216 238.472 28.1999 241.457 28.3693C249.748 28.5144 258.233 29.5912 266.669 31.3937C267.454 31.5752 268.252 31.7446 269.038 31.926C269.461 32.0228 269.884 32.1196 270.319 32.2164C274.319 33.2084 278.284 34.3335 282.224 35.5675C282.453 35.6401 282.683 35.7006 282.901 35.7732C283.928 36.0998 284.931 36.4506 285.946 36.7894C287.723 37.3943 289.5 38.0113 291.264 38.6646C300.184 42.0761 307.435 46.1168 311.641 49.843C312.113 50.218 314.119 51.4762 315.424 52.323C316.73 52.7586 318.023 53.2062 319.401 53.6659C320.766 54.1498 322.156 54.7305 323.703 55.3354C324.839 56.1702 325.951 56.9928 327.051 57.8034C328.139 58.626 329.166 59.5213 330.194 60.356C330.472 60.5859 330.75 60.8158 331.028 61.0335C327.511 60.2834 322.265 58.0816 310.457 52.5166C316.693 54.1982 320.017 55.0088 310.445 49.3833C309.563 48.8268 308.559 48.3066 307.218 47.6775C306.541 47.375 305.78 47.0363 304.909 46.637C304.027 46.2741 303.012 45.9112 301.852 45.4757C296.268 44.0118 294.854 44.2296 295.41 44.8829C295.99 45.5119 298.443 46.8911 300.558 48.0888C301.622 48.6937 302.601 49.2502 303.217 49.6736C303.834 50.1333 304.088 50.4358 303.737 50.4721C303.592 50.4842 303.29 50.4479 302.891 50.3632C302.722 50.2664 302.565 50.1817 302.383 50.0849C301.441 49.6252 300.425 49.1292 299.374 48.6211L297.404 47.2057C296.703 46.7217 296.026 46.1894 295.313 45.7297L293.174 44.3385C292.255 43.7457 292.823 44.6893 293.984 46.1168C292.799 45.5966 291.615 45.0885 290.466 44.653L287.626 45.5119L292.884 47.4355C293.307 47.5928 293.718 47.7743 294.141 47.9436C293.428 47.7501 292.69 47.5444 291.881 47.3387C289.838 46.504 287.783 45.6692 285.668 44.9796C284.75 44.6772 283.843 44.3506 282.937 44.036C279.939 42.8383 276.761 41.6648 273.534 40.6123C272.156 40.1647 270.766 39.705 269.4 39.2574C268.022 38.846 266.633 38.4831 265.279 38.1081C263.925 37.733 262.584 37.3701 261.291 37.0071C260.964 36.9225 260.638 36.8257 260.324 36.741C259.997 36.6684 259.683 36.5958 259.357 36.5232C258.716 36.3781 258.088 36.2329 257.483 36.0877C255.018 35.5191 252.758 34.9868 250.763 34.515C248.769 34.1158 247.053 33.7528 245.724 33.4141C244.007 32.9786 241.675 33.523 242.799 34.4182C244.152 35.4949 245.47 36.5716 246.775 37.6483C246.57 37.6241 246.376 37.5878 246.171 37.5636L243.621 36.9467C242.533 36.6805 241.433 36.4023 240.333 36.2208L233.698 34.9626C232.586 34.7327 231.474 34.5876 230.35 34.4424L226.99 33.9827L223.618 33.5351C222.494 33.3778 221.358 33.3294 220.234 33.2205C217.986 33.039 216.511 34.0916 217.66 34.7569C217.055 34.6602 216.306 34.5513 215.484 34.4666C214.65 34.3819 213.732 34.2609 212.765 34.2488C210.843 34.1762 208.74 34.152 206.83 34.1641C205.876 34.1641 204.969 34.1883 204.159 34.2125C203.35 34.273 202.636 34.3456 202.056 34.4061C200.908 34.5392 200.316 34.6844 200.654 34.8174L204.099 36.1361C204.751 36.4023 205.392 36.6926 206.033 36.9708C202.08 37.237 198.104 37.612 194.14 38.1564C193.898 38.1685 193.656 38.1685 193.415 38.1927C189.813 38.4952 186.078 38.7976 182.815 39.4267C181.184 39.705 179.649 39.9832 178.283 40.2373C176.917 40.4671 175.745 40.818 174.802 41.0599C172.904 41.568 171.95 41.9068 172.409 41.931C171.563 41.9915 170.669 42.1124 169.762 42.2697C169.303 42.3544 168.844 42.4391 168.372 42.5359C167.913 42.6568 167.454 42.7778 166.994 42.9109C165.169 43.4432 163.393 44.0844 161.918 44.7014C161.181 45.0038 160.516 45.3063 159.96 45.5966C159.96 45.5966 159.948 45.5966 159.948 45.6087C155.476 47 151.089 48.5243 146.786 50.1575C146.581 50.2301 146.351 50.3148 146.146 50.3753C144.587 50.9802 143.197 51.4641 142.206 51.7302C140.199 52.3109 139.837 51.8996 143.052 49.5042ZM309.671 394.269C308.439 395.007 307.206 395.818 305.913 396.544C304.607 397.245 303.29 397.959 301.948 398.685C300.196 399.096 298.613 399.52 297.078 399.822C295.543 400.113 294.068 400.391 292.606 400.657C291.083 401.359 288.738 402.411 288.17 402.738C282.695 406.379 273.365 409.876 262.173 412.198C252.854 414.073 243.33 415.392 233.843 416.009C206.709 417.533 179.395 413.227 153.941 403.476C151.778 402.738 149.675 401.794 147.511 400.947C146.436 400.512 145.348 400.088 144.26 399.653C143.716 399.435 143.16 399.241 142.629 399L141.033 398.274C138.894 397.306 136.755 396.326 134.616 395.358C132.513 394.33 130.458 393.193 128.415 392.092C127.424 391.547 126.385 390.991 125.333 390.41C124.306 389.781 123.255 389.14 122.203 388.499C121.152 387.845 120.088 387.204 119.024 386.551C117.973 385.898 116.921 385.281 115.955 384.567C112.051 381.808 108.522 379.341 106.721 377.429C103.627 374.356 104.062 373.969 106.116 374.828C107.144 375.263 108.57 376.001 110.153 376.885C111.773 377.719 113.586 378.651 115.338 379.546C116.426 380.115 116.692 379.909 117.32 380.042C111.096 375.445 108.219 372.832 103.53 369.311C102.406 368.368 101.161 367.364 99.7591 366.226C99.046 365.658 98.2967 365.065 97.499 364.412C97.1001 364.097 96.6771 363.758 96.2541 363.42C95.8432 363.057 95.4202 362.682 94.973 362.295C93.2084 360.746 91.2021 359.004 88.8937 356.996C87.7938 355.931 86.6094 354.806 85.3524 353.596C84.1075 352.374 82.7297 351.116 81.3398 349.689C80.8805 350.427 80.7959 351.636 79.8411 351.866C79.0676 352.048 77.2547 351.044 74.354 349.979C68.3955 341.087 64.4675 334.264 60.6604 326.449C61.9415 327.852 63.1501 329.195 64.2862 330.453C64.9389 331.167 65.5674 331.844 66.1838 332.522C66.8243 333.163 67.4528 333.792 68.0692 334.409C67.9967 334.3 67.9242 334.179 67.8396 334.07C68.1296 334.409 68.4318 334.748 68.7098 335.074C69.1328 335.583 69.5921 336.054 70.0393 336.514C70.4864 336.974 70.9215 337.433 71.3687 337.893C70.8249 336.599 70.849 336.054 70.1118 335.05C61.6152 322.577 54.5931 309.161 49.1665 295.139C49.3236 295.345 49.4686 295.587 49.6257 295.781C50.4839 296.93 51.3057 297.994 52.1155 299.023C52.9253 300.039 53.7109 301.031 54.5085 302.035C54.8953 302.543 55.3304 303.027 55.7534 303.523C56.1764 304.019 56.6115 304.539 57.0587 305.06C57.941 306.112 58.8354 307.225 59.7902 308.459C60.2616 309.076 60.7571 309.717 61.2526 310.407C61.7602 311.084 62.3404 311.762 62.8963 312.5C64.0445 313.964 65.2652 315.597 66.5826 317.436C66.9089 317.895 67.2474 318.367 67.5978 318.851C67.9604 319.323 68.3351 319.807 68.7219 320.303C69.4833 321.307 70.2931 322.36 71.1149 323.473C69.5195 321.126 67.8154 318.839 66.3288 316.323C65.5553 315.077 64.7697 313.818 63.972 312.524C63.1743 311.229 62.3283 309.923 61.591 308.507C60.8175 307.104 60.0198 305.677 59.198 304.189C58.3882 302.701 57.5059 301.188 56.7324 299.543C55.9347 297.91 55.1008 296.216 54.2426 294.462C53.8196 293.579 53.3483 292.696 52.9494 291.752C52.5506 290.808 52.1397 289.853 51.7166 288.885C52.3572 289.986 52.9736 291.026 53.5537 292.018C54.1822 292.974 54.7744 293.881 55.3304 294.74C56.4544 296.446 57.4455 297.982 58.364 299.374C58.5937 299.724 58.8112 300.063 59.0409 300.402C59.2826 300.729 59.5122 301.043 59.7298 301.358C60.1769 301.975 60.6241 302.58 61.0471 303.16C61.6515 303.983 62.2074 304.757 62.7755 305.531C62.7876 305.955 62.7996 306.378 62.8117 306.802C63.2106 307.503 63.5852 308.108 63.9237 308.58C64.25 309.064 64.5763 309.403 64.818 309.62C64.8905 309.693 64.951 309.717 65.0235 309.754C66.8002 313.201 68.7581 316.649 70.9095 320.073C71.3566 320.521 71.7434 320.884 72.0939 321.21C72.4807 321.815 72.8795 322.384 73.2663 322.977C73.4113 323.315 73.5805 323.678 73.7497 324.041C74.4024 325.348 75.1759 326.799 75.901 328.106C76.6383 329.413 77.3272 330.574 77.8348 331.312C78.3666 332.026 78.705 332.316 78.6688 331.929C78.6204 331.518 78.6083 331.094 78.5842 330.671C81.086 334.107 83.612 337.349 86.1138 340.325C86.5973 340.349 87.0686 340.373 87.5158 340.397C87.7213 340.397 87.9147 340.41 88.1201 340.41C88.5552 341.426 89.087 342.49 89.6913 343.567C90.2956 344.656 91.045 345.708 91.7822 346.761C92.5316 347.801 93.3051 348.818 94.0665 349.773C94.4533 350.245 94.8279 350.705 95.1905 351.14C95.5773 351.564 95.952 351.951 96.3266 352.314C95.4564 350.777 94.7071 349.144 93.9215 347.559C94.695 348.479 95.4806 349.398 96.2541 350.306C96.4596 351.152 96.653 351.987 96.8584 352.822C99.0581 354.951 100.605 355.931 100.279 354.612C100.98 355.35 101.657 356.113 102.37 356.826C103.421 357.843 104.473 358.823 105.524 359.754C105.959 360.371 106.503 361.024 107.107 361.69C107.41 362.016 107.736 362.355 108.074 362.694C108.413 363.02 108.775 363.335 109.15 363.65C110.625 364.896 112.232 366.081 113.646 367.001L111.93 364.799C112.595 365.259 113.259 365.706 113.924 366.13C114.021 366.541 114.117 366.94 114.214 367.352C115.278 368.041 116.257 368.465 116.897 368.67C117.55 368.864 117.9 368.815 117.792 368.416C118.118 368.598 118.456 368.767 118.795 368.948C119.713 369.42 120.632 369.868 121.563 370.412C122.493 370.969 123.46 371.634 124.536 372.469C126.107 373.727 127.763 374.973 129.455 376.195C130.168 376.909 130.929 377.55 131.679 378.215L133.951 380.212C135.474 381.542 136.984 382.909 138.58 384.131L143.366 387.93C144.985 389.176 146.665 390.325 148.333 391.523C150.303 392.926 151.959 392.201 151.149 391.088C150.279 389.854 149.409 388.632 148.527 387.398C149.784 388.051 151.041 388.704 152.298 389.358C152.926 389.696 153.579 389.975 154.231 390.265C154.884 390.555 155.537 390.833 156.189 391.124C157.507 391.692 158.824 392.249 160.178 392.793C160.516 392.926 160.855 393.072 161.193 393.193L162.232 393.543C162.921 393.761 163.622 393.991 164.323 394.209L168.529 396.519C169.23 396.919 169.955 397.245 170.669 397.608L172.832 398.661L177.183 400.766C178.658 401.419 180.144 402.036 181.631 402.677C183.456 403.452 185.22 402.847 184.604 401.976C183.927 400.996 183.25 400.016 182.573 399.036C184.12 399.725 185.68 400.463 187.251 401.105L192.025 402.968C195.216 404.274 198.491 405.278 201.79 406.379C202.818 406.706 203.833 406.621 204.401 406.307C204.969 405.992 205.102 405.508 204.341 405.109C201.935 403.754 199.567 402.399 197.258 401.056C198.382 401.153 199.554 401.286 200.715 401.492L204.026 402.544C205.126 402.907 206.25 403.149 207.362 403.464C209.598 404.044 211.846 404.673 214.118 405.206C216.1 405.617 217.792 404.565 216.801 403.839C218.82 403.911 220.874 403.96 222.941 403.96C223.4 403.935 224.029 403.948 224.706 403.96L228.888 404.661L230.991 405.012C231.692 405.133 232.393 405.242 233.106 405.315L241.626 406.258C243.826 406.391 245.373 404.867 243.838 404.383C241.421 403.669 239.016 402.738 236.659 401.867C237.42 401.818 238.182 401.794 238.931 401.782C241.433 401.964 243.959 402.084 246.485 402.169C245.857 402.399 245.663 402.665 246.086 402.956C247.428 403.887 248.769 404.819 252.359 405.254C254.764 404.964 257.121 404.371 259.49 403.948C261.871 403.536 264.191 402.943 266.524 402.363C271.02 401.891 274.102 401.286 276.205 401.044C278.308 400.79 279.383 400.73 279.758 400.814C280.133 400.911 279.807 401.201 279.081 401.601C278.344 401.964 277.208 402.423 275.975 402.907C273.51 403.875 270.681 404.988 269.956 405.569C269.255 406.198 270.754 406.645 276.966 405.919C278.272 405.629 279.42 405.387 280.423 405.133C281.414 404.843 282.284 404.589 283.058 404.371C284.605 403.899 285.753 403.5 286.78 403.028C297.899 398.431 294.213 398.794 287.252 399.653C300.776 395.467 306.747 393.894 310.638 393.616C310.336 393.87 310.01 394.064 309.671 394.269Z"
        fill="url(#paint0_linear_1_1709)" />
    <defs>
        <linearGradient id="paint0_linear_1_1709" x1="228.5" y1="445.5" x2="247.5" y2="-21.5001"
            gradientUnits="userSpaceOnUse">
            <stop offset="0.0158079" stop-color="#F8BC17" />
            <stop offset="1" stop-color="#F8BC17" stop-opacity="0.54" />
        </linearGradient>
    </defs>
</svg>